<?xml version="1.0" standalone="no"?>
<!DOCTYPE svg PUBLIC "-//W3C//DTD SVG 20010904//EN"
 "http://www.w3.org/TR/2001/REC-SVG-20010904/DTD/svg10.dtd">
<svg version="1.0" xmlns="http://www.w3.org/2000/svg"
 width="1005.000000pt" height="1100.000000pt" viewBox="0 0 1005.000000 1100.000000"
 preserveAspectRatio="xMidYMid meet">

<g transform="translate(0.000000,1100.000000) scale(0.100000,-0.100000)"
fill="#000000" stroke="none">
<path d="M880 9700 c0 -336 -3 -610 -6 -610 -3 0 -158 61 -345 135 -188 74
-354 135 -370 135 -101 0 -163 -117 -107 -200 17 -23 136 -103 423 -280 l400
-247 5 -1689 6 -1689 22 -140 c84 -520 276 -984 610 -1475 393 -580 1012
-1198 1757 -1756 551 -414 1160 -796 1745 -1097 l185 -95 140 76 c493 265 792
441 1140 670 468 308 856 600 1232 927 186 162 627 601 762 760 499 584 805
1137 945 1705 19 74 39 170 46 213 7 42 16 77 20 77 4 0 90 -40 191 -90 118
-58 196 -90 217 -90 100 0 165 111 113 196 -10 17 -124 109 -260 209 l-241
179 0 2391 0 2392 -47 -4 c-27 -2 -997 -49 -2157 -104 l-2108 -101 -2112 101
c-1161 55 -2132 103 -2158 105 l-48 5 0 -609z m2285 343 l2050 -97 2070 101
c1139 55 2071 99 2073 98 1 -1 1 -1015 0 -2254 l-3 -2252 -97 73 -98 72 0
2087 0 2086 -87 -4 c-49 -3 -940 -47 -1980 -97 l-1893 -92 -1892 92 c-1041 51
-1932 94 -1980 97 l-88 4 0 -508 0 -508 -102 42 -103 42 -3 550 c-1 303 0 556
3 563 3 8 17 11 42 7 21 -2 961 -48 2088 -102z m-1560 -1362 c787 -312 1431
-567 1432 -567 1 1 -9 211 -23 467 -14 255 -24 478 -22 495 3 30 8 27 717
-475 l714 -506 -42 -7 c-24 -4 -49 -13 -57 -19 -8 -6 -77 -129 -154 -273 -77
-144 -146 -270 -153 -281 -13 -17 -25 -10 -188 104 -96 67 -178 122 -184 122
-5 0 -44 -131 -85 -291 -42 -160 -80 -291 -85 -291 -6 0 -758 463 -1672 1028
-1626 1005 -1716 1063 -1645 1063 10 0 661 -256 1447 -569z m6735 417 c0 -7
-87 -219 -192 -470 l-193 -458 -107 0 c-60 0 -108 4 -108 8 0 4 71 172 158
373 l158 364 -193 3 -193 2 0 95 0 95 335 0 c261 0 335 -3 335 -12z m-3397
-504 c72 -38 403 -237 409 -248 4 -6 8 -20 8 -30 0 -27 -291 -508 -304 -502
-112 46 -512 219 -515 222 -5 5 310 535 332 556 21 22 30 22 70 2z m-3803
-125 l99 -61 4 -1576 c3 -1727 0 -1618 63 -1900 117 -520 422 -1076 890 -1622
129 -150 432 -459 609 -620 519 -472 1170 -941 1875 -1352 190 -111 503 -278
521 -278 8 0 111 52 229 116 637 344 1315 799 1845 1238 424 351 827 759 1113
1125 94 119 286 405 354 526 213 375 345 751 393 1114 8 57 16 105 18 108 3 2
46 -16 96 -42 l91 -45 -6 -43 c-102 -714 -480 -1412 -1161 -2142 -661 -709
-1705 -1478 -2780 -2048 -101 -54 -188 -97 -194 -97 -16 0 -262 129 -454 238
-725 409 -1380 866 -1959 1365 -188 163 -626 599 -772 770 -492 578 -810 1168
-924 1717 -56 273 -54 181 -57 1943 -2 895 -1 1627 2 1627 4 0 51 -27 105 -61z
m4429 -250 c177 -100 343 -203 352 -221 6 -11 8 -26 5 -35 -4 -8 -70 -118
-148 -244 l-142 -228 -17 28 c-29 49 -73 75 -257 156 -100 44 -182 83 -182 87
0 12 281 463 297 476 23 17 30 16 92 -19z m-817 -393 c172 -74 412 -179 533
-233 184 -83 221 -103 229 -125 8 -22 -5 -49 -109 -214 -134 -216 -140 -224
-169 -224 -12 0 -118 39 -236 86 -118 47 -236 94 -262 105 l-46 18 -36 -60
c-20 -33 -36 -62 -36 -64 0 -2 91 -48 203 -103 171 -84 209 -107 247 -148 29
-32 91 -134 174 -287 l129 -237 151 -99 c83 -54 264 -173 403 -265 l252 -168
-30 -59 c-16 -33 -43 -100 -59 -148 l-30 -89 55 -290 c30 -159 55 -299 55
-309 0 -14 -11 -23 -38 -31 -57 -17 -237 -108 -411 -207 -84 -48 -186 -98
-225 -112 -132 -47 -314 -31 -446 38 -69 37 -138 88 -287 215 -151 129 -202
166 -279 206 -35 18 -64 40 -64 48 0 8 40 156 89 328 l90 313 -375 611 c-363
593 -392 645 -365 673 5 6 122 222 261 480 139 259 257 473 264 477 25 17 68
2 368 -126z m1481 -47 c95 -56 175 -106 179 -113 4 -6 8 -20 8 -32 0 -20 -552
-912 -574 -926 -24 -16 -49 -5 -208 88 -189 112 -198 119 -198 151 0 15 107
196 259 441 318 512 304 492 336 492 15 0 101 -44 198 -101z m434 -346 c153
-91 163 -99 163 -131 0 -15 -99 -182 -252 -426 -138 -220 -258 -409 -266 -418
-8 -10 -25 -18 -37 -18 -29 0 -293 157 -311 186 -13 18 -13 27 -3 46 20 39
480 771 506 806 15 20 33 32 48 32 13 0 82 -34 152 -77z m1855 -1309 c896
-666 1394 -1042 1396 -1055 2 -13 -2 -19 -15 -19 -10 0 -535 255 -1167 566
-631 311 -1150 564 -1152 562 -2 -3 -39 -239 -81 -526 -44 -293 -82 -522 -88
-522 -5 1 -442 290 -970 644 l-960 643 -127 234 c-70 129 -128 237 -128 241 0
6 187 -98 750 -417 129 -74 247 -137 263 -141 40 -9 93 4 126 32 17 14 60 70
95 125 36 54 68 99 71 99 3 0 103 -81 223 -180 214 -177 217 -179 225 -152 6
22 137 878 137 897 0 3 2 5 5 5 2 0 631 -466 1397 -1036z m-5474 -334 c41 -11
103 -36 140 -54 77 -38 134 -52 392 -96 120 -21 205 -41 242 -57 67 -30 130
-92 148 -148 21 -65 3 -100 -105 -200 -70 -64 -95 -93 -93 -108 3 -18 26 -26
173 -63 181 -45 375 -109 459 -151 62 -31 160 -103 281 -207 222 -191 308
-243 473 -282 89 -22 123 -26 202 -22 130 7 218 39 420 152 360 203 429 229
680 256 139 15 203 27 310 59 74 22 178 48 230 57 218 37 401 -17 543 -162 94
-96 227 -314 227 -372 0 -16 -27 -51 -79 -106 -88 -91 -114 -145 -93 -191 11
-23 16 -25 86 -25 95 0 114 -15 106 -85 -1 -11 -20 -52 -41 -91 -23 -42 -39
-84 -39 -105 -1 -47 -26 -99 -110 -223 -58 -88 -75 -107 -93 -104 -50 7 -32
62 64 195 33 45 59 86 59 91 0 18 -61 32 -184 43 -147 13 -168 20 -211 73 -81
99 -123 245 -91 319 18 44 71 72 117 62 41 -9 90 10 129 50 l33 34 -49 30
c-84 54 -149 74 -244 73 -95 0 -148 -14 -354 -94 -95 -36 -170 -57 -285 -78
-219 -40 -259 -55 -480 -183 -236 -135 -393 -185 -616 -194 -383 -16 -559 54
-940 372 -213 178 -329 233 -630 300 -281 62 -356 89 -410 145 -45 47 -41 92
13 163 62 83 66 98 45 178 -14 55 -15 78 -7 119 10 48 9 54 -16 88 -15 20 -38
47 -51 59 -49 45 -220 104 -341 118 l-56 7 5 -39 c7 -51 -28 -192 -63 -250
-30 -52 -76 -83 -121 -83 -38 0 -36 -3 -22 54 13 52 1 107 -35 157 -126 175
-157 240 -157 330 -1 68 18 108 67 145 85 65 233 82 372 44z m1241 -2319 c13
-10 31 -34 40 -52 11 -23 63 -69 164 -146 81 -62 152 -113 157 -113 6 0 51 16
101 36 88 36 134 68 123 86 -10 16 16 38 34 28 10 -5 28 -11 42 -14 14 -3 36
-15 50 -26 22 -17 23 -22 13 -39 -7 -12 -13 -28 -13 -36 0 -17 -31 -20 -46 -5
-9 9 -164 -84 -164 -100 0 -3 92 -88 205 -189 l206 -182 44 38 c152 131 374
329 374 333 0 3 -36 29 -80 58 -58 39 -84 51 -92 43 -21 -21 -42 -11 -53 24
-10 33 -9 37 18 60 16 14 40 25 53 25 13 0 26 4 30 10 9 15 35 0 35 -22 0 -33
42 -63 135 -97 64 -23 94 -30 106 -23 8 5 81 60 162 122 94 72 147 119 147
130 0 27 56 70 91 70 43 0 69 -31 69 -83 0 -49 -27 -87 -61 -87 -12 0 -62 -38
-117 -89 -53 -49 -120 -108 -149 -132 -48 -41 -52 -47 -52 -90 -2 -110 31
-199 73 -199 27 0 26 -17 -1 -70 -33 -64 -57 -79 -85 -53 -11 10 -23 17 -27
16 -3 -1 -5 12 -3 29 3 37 -46 190 -59 183 -15 -10 -400 -324 -402 -328 -1 -3
90 -86 203 -186 213 -188 250 -233 250 -304 l0 -28 -62 7 c-35 4 -72 11 -83
17 -11 6 -116 89 -234 185 -118 96 -220 175 -227 176 -7 1 -114 -81 -238 -182
l-227 -184 -66 -9 c-86 -12 -93 -6 -68 66 21 62 32 74 288 299 86 76 157 140
157 141 0 6 -412 337 -415 333 -1 -1 -15 -41 -29 -87 -19 -62 -23 -88 -15 -98
13 -15 4 -47 -12 -38 -5 4 -19 -1 -30 -11 -18 -16 -20 -16 -40 2 -26 23 -50
69 -42 78 4 3 1 6 -5 6 -20 0 -14 40 6 40 44 1 62 42 76 176 l7 60 -137 119
c-74 66 -140 128 -145 137 -6 11 -21 18 -39 18 -36 0 -70 41 -70 85 0 72 73
109 129 66z"/>
<path d="M9564 10274 c-20 -19 -24 -31 -19 -52 12 -52 68 -69 105 -32 27 27
25 56 -5 85 -31 32 -50 31 -81 -1z m90 -27 c20 -56 -57 -92 -90 -42 -19 29
-12 59 19 72 30 14 60 1 71 -30z"/>
<path d="M9581 10233 c1 -21 3 -30 6 -20 4 17 6 17 23 2 16 -15 18 -14 18 12
0 28 -12 43 -35 43 -9 0 -13 -13 -12 -37z m34 17 c3 -5 -1 -10 -9 -10 -9 0
-16 5 -16 10 0 6 4 10 9 10 6 0 13 -4 16 -10z"/>
</g>
</svg>
